<?xml version="1.0" standalone="no"?>
<!DOCTYPE svg PUBLIC "-//W3C//DTD SVG 20010904//EN"
 "http://www.w3.org/TR/2001/REC-SVG-20010904/DTD/svg10.dtd">
<svg version="1.0" xmlns="http://www.w3.org/2000/svg"
 width="256.000000pt" height="256.000000pt" viewBox="0 0 256.000000 256.000000"
 preserveAspectRatio="xMidYMid meet">
<metadata>
Created by potrace 1.14, written by Peter Selinger 2001-2017
</metadata>
<g transform="translate(0.000000,256.000000) scale(0.100000,-0.100000)"
fill="#000000" stroke="none">
<path d="M0 1280 l0 -1280 1280 0 1280 0 0 1280 0 1280 -1280 0 -1280 0 0
-1280z m1733 598 c10 -5 27 -24 37 -41 19 -30 20 -54 20 -497 0 -508 -4 -553
-57 -660 -43 -86 -145 -182 -239 -227 -79 -38 -79 -38 -209 -38 -112 0 -138 3
-187 23 -124 50 -241 167 -289 290 -23 56 -23 69 -30 547 -4 286 -3 505 2 527
13 53 59 88 116 88 38 0 50 -5 79 -34 l34 -34 0 -268 0 -269 298 297 c163 164
308 302 322 307 26 10 72 5 103 -11z"/>
<path d="M844 1819 c-18 -20 -19 -45 -22 -468 -1 -258 1 -473 7 -509 47 -301
374 -475 650 -345 73 35 179 140 213 213 44 93 48 145 48 622 0 509 0 507 -75
508 -25 0 -73 -43 -352 -322 -278 -278 -324 -320 -337 -308 -14 11 -16 52 -16
299 0 243 -2 290 -16 309 -20 29 -74 30 -100 1z m754 -604 c3 -413 1 -422 -85
-515 -70 -76 -132 -104 -233 -104 -90 0 -147 22 -214 84 -65 60 -98 132 -100
218 l-1 69 295 301 c215 220 300 301 315 299 20 -2 20 -10 23 -352z"/>
<path d="M1277 1216 c-262 -256 -267 -262 -267 -301 0 -141 109 -260 249 -272
127 -12 245 69 281 193 7 26 10 137 8 340 l-3 301 -268 -261z"/>
</g>
</svg>
